<svg width="400" height="400" viewBox="0 0 400 400" fill="none" xmlns="http://www.w3.org/2000/svg">
<g clip-path="url(#clip0_28:56346)">
<path opacity="0.5" d="M99.2751 233.602C75.062 225.273 47.4591 218.203 24.8925 230.212C21.9869 231.762 19.1782 233.699 17.6286 236.508C13.5608 243.966 20.0499 253.748 16.8537 261.689C13.6576 269.631 1.84164 273.602 2.81016 282.028C3.19757 284.256 4.16609 286.29 5.71573 287.936C14.5293 298.784 30.8005 299.849 44.5535 297.137C58.3065 294.426 71.6721 288.905 85.6189 289.583C99.0814 290.261 111.382 296.75 123.682 302.077C144.408 311.278 168.621 317.767 189.251 308.566C198.742 304.305 206.587 297.137 215.692 292.198C227.895 285.515 242.035 282.9 255.788 284.837C264.989 286.096 273.803 289.389 282.81 291.617C303.343 296.75 324.747 296.556 345.861 296.363C349.832 296.363 353.803 296.266 357.58 295.2C363.198 293.554 367.75 289.68 372.205 285.903C378.016 280.963 384.118 275.443 386.055 268.082C388.282 259.268 383.633 249.874 376.854 243.966C370.074 238.058 361.357 234.668 352.834 231.568C350.704 230.794 348.476 230.019 346.345 230.6C344.989 231.084 343.73 231.859 342.665 232.924C336.66 238.736 331.527 248.518 323.294 246.968C320.389 246.387 317.968 244.353 315.643 242.513C303.246 232.44 286.587 224.692 271.575 230.212C260.631 234.28 252.883 244.74 241.842 248.421C233.997 251.036 225.377 249.874 217.047 250.455C204.941 251.229 193.222 255.491 181.115 255.2C150.316 254.522 124.554 225.079 93.8513 227.888C91.43 228.082 88.815 228.663 87.3622 230.6" fill="#5CC7D0"/>
<path d="M60.3397 205.612C60.3397 205.612 34.6738 221.108 81.9377 244.934C81.9377 244.934 92.3978 225.563 80.8723 209.873C76.2234 203.481 67.6036 201.641 60.7271 205.418L60.3397 205.612Z" fill="#5CC7D0"/>
<path d="M60.7266 205.322C60.7266 205.322 82.6152 222.078 82.0341 244.935" stroke="#2F4051" stroke-miterlimit="10"/>
<path d="M384.6 192.731C389.83 211.714 367.651 265.758 367.651 265.758C367.651 265.758 321.065 230.504 315.835 211.521C310.508 192.538 321.549 172.877 340.532 167.55C359.031 162.416 378.305 172.78 384.116 191.182C384.31 191.763 384.407 192.247 384.6 192.731Z" fill="#5CC7D0"/>
<path opacity="0.1" d="M384.6 192.731C389.83 211.714 367.651 265.758 367.651 265.758C367.651 265.758 321.065 230.504 315.835 211.521C310.508 192.538 321.549 172.877 340.532 167.55C359.031 162.416 378.305 172.78 384.116 191.182C384.31 191.763 384.407 192.247 384.6 192.731Z" fill="black"/>
<path d="M341.016 167.84C341.016 167.84 369.974 211.617 367.844 265.854" stroke="#2F4051" stroke-miterlimit="10"/>
<path d="M391.963 227.404C391.963 227.404 365.716 213.07 369.008 265.952C369.008 265.952 390.897 265.177 398.742 247.259C401.938 240.092 399.13 231.666 392.35 227.695L391.963 227.404Z" fill="#5CC7D0"/>
<path d="M392.446 227.502C392.446 227.502 389.056 254.911 369.008 265.952" stroke="#2F4051" stroke-miterlimit="10"/>
<path d="M6.97246 221.497C6.97246 221.497 -18.6934 236.993 28.5705 260.819C28.5705 260.819 38.9337 241.448 27.5052 225.758C22.8562 219.366 14.2364 217.526 7.35987 221.303L6.97246 221.497Z" fill="#5CC7D0"/>
<path d="M7.26562 221.205C7.26562 221.205 29.1542 237.961 28.5731 260.818" stroke="#2F4051" stroke-miterlimit="10"/>
<path d="M326.878 241.641H299.953C300.534 240.382 300.921 239.026 300.921 237.67V114.958C300.921 110.019 296.853 105.951 291.914 105.951H83.2941C78.3546 105.951 74.2868 110.019 74.2868 114.958V237.67C74.2868 239.026 74.5774 240.479 75.2554 241.641H47.2651C45.9091 241.641 44.8438 242.707 44.8438 244.063V246C44.8438 253.36 50.7517 259.365 58.1125 259.365C58.1125 259.365 58.1125 259.365 58.2094 259.365H315.836C323.197 259.365 329.202 253.36 329.202 246V244.063C329.202 242.803 328.137 241.738 326.878 241.641ZM160.873 249.293L158.548 246.678H215.885L213.367 249.293H160.873Z" fill="url(#paint0_linear_28:56346)"/>
<path d="M86.5868 107.695H288.524C293.948 107.695 298.306 112.054 298.306 117.477V235.54C298.306 240.964 293.948 245.322 288.524 245.322H86.5868C81.163 245.322 76.8047 240.964 76.8047 235.54V117.477C76.8047 112.054 81.163 107.695 86.5868 107.695Z" fill="#2F4051"/>
<path d="M293.075 127.744H81.4531V240.093H293.075V127.744Z" fill="white"/>
<path d="M187.313 119.801C188.329 119.801 189.153 118.978 189.153 117.961C189.153 116.945 188.329 116.121 187.313 116.121C186.297 116.121 185.473 116.945 185.473 117.961C185.473 118.978 186.297 119.801 187.313 119.801Z" fill="white"/>
<path d="M219.953 240.285L212.689 247.743H161.454L154.868 240.285H50.4612C49.2021 240.285 48.1367 241.351 48.1367 242.61V244.45C48.1367 251.617 53.9479 257.525 61.2118 257.525H313.028C320.195 257.525 326.103 251.714 326.103 244.45V242.61C326.103 241.351 325.037 240.285 323.778 240.285H219.953Z" fill="#2F4051"/>
<path d="M108.473 134.717V230.31H266.536" stroke="#2F4051" stroke-width="2" stroke-miterlimit="10"/>
<path opacity="0.5" d="M138.888 201.352H122.52V226.533H138.888V201.352Z" fill="#5CC7D0"/>
<path opacity="0.7" d="M166.876 178.979H150.508V226.533H166.876V178.979Z" fill="#5CC7D0"/>
<path opacity="0.5" d="M194.77 192.537H178.402V226.532H194.77V192.537Z" fill="#5CC7D0"/>
<path opacity="0.8" d="M222.759 171.521H206.391V226.534H222.759V171.521Z" fill="#5CC7D0"/>
<path d="M250.751 151.957H234.383V226.533H250.751V151.957Z" fill="#5CC7D0"/>
<path d="M130.363 185.951L158.838 160.382L186.828 184.595L214.334 155.249L242.325 143.627" stroke="#2F4051" stroke-width="2" stroke-miterlimit="10"/>
<path d="M130.363 189.244C132.182 189.244 133.656 187.77 133.656 185.951C133.656 184.133 132.182 182.658 130.363 182.658C128.545 182.658 127.07 184.133 127.07 185.951C127.07 187.77 128.545 189.244 130.363 189.244Z" fill="#5CC7D0"/>
<path d="M186.344 187.404C188.162 187.404 189.637 185.93 189.637 184.111C189.637 182.293 188.162 180.818 186.344 180.818C184.525 180.818 183.051 182.293 183.051 184.111C183.051 185.93 184.525 187.404 186.344 187.404Z" fill="#5CC7D0"/>
<path d="M214.82 158.543C216.639 158.543 218.113 157.069 218.113 155.25C218.113 153.431 216.639 151.957 214.82 151.957C213.002 151.957 211.527 153.431 211.527 155.25C211.527 157.069 213.002 158.543 214.82 158.543Z" fill="#5CC7D0"/>
<path d="M158.836 163.191C160.655 163.191 162.129 161.717 162.129 159.898C162.129 158.08 160.655 156.605 158.836 156.605C157.017 156.605 155.543 158.08 155.543 159.898C155.543 161.717 157.017 163.191 158.836 163.191Z" fill="#5CC7D0"/>
<path d="M242.324 146.92C244.143 146.92 245.617 145.446 245.617 143.627C245.617 141.808 244.143 140.334 242.324 140.334C240.506 140.334 239.031 141.808 239.031 143.627C239.031 145.446 240.506 146.92 242.324 146.92Z" fill="#5CC7D0"/>
<path d="M34.6736 142.078C34.6736 142.078 23.6324 164.838 30.8964 191.763C38.1603 218.688 35.8358 250.843 28.6687 258.882" stroke="#2F4051" stroke-width="2" stroke-miterlimit="10"/>
<path d="M34.6743 145.079C36.3325 145.079 37.6767 143.735 37.6767 142.077C37.6767 140.418 36.3325 139.074 34.6743 139.074C33.0161 139.074 31.6719 140.418 31.6719 142.077C31.6719 143.735 33.0161 145.079 34.6743 145.079Z" fill="#5CC7D0"/>
<path d="M30.1211 156.703C30.1211 156.703 41.5497 158.737 44.5521 154.572" stroke="#2F4051" stroke-width="2" stroke-miterlimit="10"/>
<path d="M29.0557 163.288C29.0557 163.288 22.1791 155.734 22.5666 151.182" stroke="#2F4051" stroke-width="2" stroke-miterlimit="10"/>
<path d="M28.4727 177.235C28.4727 177.235 34.6712 178.882 40.3855 166.775" stroke="#2F4051" stroke-width="2" stroke-miterlimit="10"/>
<path d="M30.1205 187.307C30.1205 187.307 14.6241 177.331 16.4643 170.842" stroke="#2F4051" stroke-width="2" stroke-miterlimit="10"/>
<path d="M32.543 198.735C32.543 198.735 43.3904 189.05 42.2282 179.559" stroke="#2F4051" stroke-width="2" stroke-miterlimit="10"/>
<path d="M33.7048 205.418C33.7048 205.418 19.8549 201.544 20.2424 195.539" stroke="#2F4051" stroke-width="2" stroke-miterlimit="10"/>
<path d="M34.6719 213.457C34.6719 213.457 43.3886 205.418 44.5508 200.479" stroke="#2F4051" stroke-width="2" stroke-miterlimit="10"/>
<path d="M35.2549 227.211C35.2549 227.211 26.3444 216.751 25.957 211.424" stroke="#2F4051" stroke-width="2" stroke-miterlimit="10"/>
<path d="M35.2539 235.83C35.2539 235.83 45.2297 224.692 46.0045 219.365" stroke="#2F4051" stroke-width="2" stroke-miterlimit="10"/>
<path d="M22.5649 154.958C24.2231 154.958 25.5673 153.614 25.5673 151.956C25.5673 150.297 24.2231 148.953 22.5649 148.953C20.9067 148.953 19.5625 150.297 19.5625 151.956C19.5625 153.614 20.9067 154.958 22.5649 154.958Z" fill="#5CC7D0"/>
<path d="M19.1782 198.542C20.8364 198.542 22.1806 197.198 22.1806 195.54C22.1806 193.881 20.8364 192.537 19.1782 192.537C17.52 192.537 16.1758 193.881 16.1758 195.54C16.1758 197.198 17.52 198.542 19.1782 198.542Z" fill="#5CC7D0"/>
<path d="M16.4634 173.845C18.1216 173.845 19.4658 172.5 19.4658 170.842C19.4658 169.184 18.1216 167.84 16.4634 167.84C14.8052 167.84 13.4609 169.184 13.4609 170.842C13.4609 172.5 14.8052 173.845 16.4634 173.845Z" fill="#5CC7D0"/>
<path d="M44.5532 157.573C46.2114 157.573 47.5556 156.229 47.5556 154.571C47.5556 152.913 46.2114 151.568 44.5532 151.568C42.895 151.568 41.5508 152.913 41.5508 154.571C41.5508 156.229 42.895 157.573 44.5532 157.573Z" fill="#5CC7D0"/>
<path d="M44.5532 204.159C46.2114 204.159 47.5556 202.815 47.5556 201.157C47.5556 199.499 46.2114 198.154 44.5532 198.154C42.895 198.154 41.5508 199.499 41.5508 201.157C41.5508 202.815 42.895 204.159 44.5532 204.159Z" fill="#5CC7D0"/>
<path d="M39.6118 169.681C41.27 169.681 42.6142 168.336 42.6142 166.678C42.6142 165.02 41.27 163.676 39.6118 163.676C37.9536 163.676 36.6094 165.02 36.6094 166.678C36.6094 168.336 37.9536 169.681 39.6118 169.681Z" fill="#5CC7D0"/>
<path d="M45.7134 224.306C47.3716 224.306 48.7158 222.961 48.7158 221.303C48.7158 219.645 47.3716 218.301 45.7134 218.301C44.0552 218.301 42.7109 219.645 42.7109 221.303C42.7109 222.961 44.0552 224.306 45.7134 224.306Z" fill="#5CC7D0"/>
<path d="M25.1821 216.362C26.8403 216.362 28.1845 215.018 28.1845 213.36C28.1845 211.702 26.8403 210.357 25.1821 210.357C23.5239 210.357 22.1797 211.702 22.1797 213.36C22.1797 215.018 23.5239 216.362 25.1821 216.362Z" fill="#5CC7D0"/>
<path d="M42.6157 182.561C44.2739 182.561 45.6181 181.217 45.6181 179.559C45.6181 177.901 44.2739 176.557 42.6157 176.557C40.9575 176.557 39.6133 177.901 39.6133 179.559C39.6133 181.217 40.9575 182.561 42.6157 182.561Z" fill="#5CC7D0"/>
<path opacity="0.5" d="M376.464 144.595C375.108 144.595 374.043 143.626 373.752 142.367C373.559 140.818 375.011 139.752 375.98 138.493C377.53 136.169 377.53 133.166 375.98 130.842C374.43 128.614 372.106 126.968 369.491 126.193C367.36 125.515 364.842 125.224 363.486 123.287C361.452 120.188 364.551 116.411 364.842 112.73C364.939 109.147 362.324 105.951 358.74 105.467C356.706 105.273 354.382 105.854 352.929 104.498C352.542 104.111 352.251 103.626 352.057 103.045C351.089 100.624 351.573 97.9121 351.67 95.297C351.767 92.682 351.476 89.7765 349.442 88.13C348.183 87.2583 346.731 86.6772 345.181 86.5803C340.629 85.9024 335.98 85.9992 331.525 86.774C325.229 87.7426 318.643 89.6796 314.479 94.5222C310.314 99.3648 309.733 107.694 314.769 111.568C314.382 111.181 314.576 110.503 315.157 109.534V109.825C315.157 115.249 318.547 119.994 323.583 121.835V122.706C322.711 122.9 321.743 123.287 320.968 123.772C312.348 125.806 295.205 136.362 295.205 136.362L269.927 140.624C269.927 140.624 257.53 142.561 258.014 144.401C258.498 146.241 269.927 144.885 269.927 144.885H295.496C297.82 144.885 300.048 144.304 302.082 143.142L316.028 135.491C315.932 136.653 315.932 137.718 315.932 138.881C313.704 140.43 311.573 143.917 316.125 150.987V150.89V151.084L310.895 174.522C309.346 175.684 308.28 176.75 308.668 177.234C308.861 177.525 309.442 177.621 310.217 177.525L303.244 209.97L322.905 233.796L326.198 252.585L323.099 255.588L311.573 257.718C310.992 257.815 310.605 258.396 310.701 258.977C310.798 259.462 311.186 259.849 311.67 259.849H336.852V255.103H337.045L336.658 249.389L344.6 244.159L341.985 240.188L341.597 240.382L335.205 231.471L334.14 217.525L345.762 175.491L342.856 163.675L347.893 161.157C351.186 159.51 352.735 155.733 351.476 152.246C350.701 150.019 349.733 147.404 348.668 144.789C350.314 146.435 352.251 147.791 354.285 148.856C362.517 152.73 372.493 149.05 379.854 143.723C378.982 144.207 377.723 144.498 376.464 144.595ZM340.823 154.474L339.079 147.21L341.501 153.312C341.113 153.893 340.919 154.28 340.823 154.474ZM330.944 122.706V122.125C332.59 121.738 334.14 120.963 335.496 119.994C335.399 121.931 335.593 123.868 336.077 125.709C334.818 124.159 332.978 123.094 330.944 122.706ZM317.578 206.58L327.747 177.137L321.549 212.101L317.578 206.58Z" fill="url(#paint1_linear_28:56346)"/>
<path d="M341.5 238.252L332.59 244.063L322.323 253.942C321.936 254.233 321.936 254.814 322.227 255.201C322.517 255.685 323.098 255.782 323.583 255.589C323.583 255.589 323.679 255.589 323.679 255.492L344.115 242.126L341.5 238.252Z" fill="#212D38"/>
<path d="M323.003 132.78L302.471 144.112C300.534 145.178 298.306 145.759 296.079 145.759H271.188V141.594L295.691 137.429C295.691 137.429 323.488 120.287 325.328 125.904C327.168 131.521 323.003 132.78 323.003 132.78Z" fill="#E30072"/>
<path d="M345.181 175.395H310.992L316.125 151.763C316.125 138.882 313.607 123.676 326.392 123.676C339.273 123.676 337.82 132.489 337.82 145.274L345.181 175.395Z" fill="#E30072"/>
<path d="M323.292 114.668H330.556V124.741C330.556 126.581 329.006 128.13 327.166 128.13H326.585C324.745 128.13 323.195 126.581 323.195 124.741V114.668H323.292Z" fill="#FDA57D"/>
<path d="M310.994 175.297L303.633 209.001L333.366 244.837L341.212 238.735L317.58 205.612L328.04 175.297H310.994Z" fill="#DDE0E3"/>
<path opacity="0.04" d="M310.994 175.297L303.633 209.001L333.366 244.837L341.212 238.735L317.58 205.612L328.04 175.297H310.994Z" fill="black"/>
<path d="M327.844 175.297L320.289 217.524L326.391 252.682H336.657L333.848 216.265L345.18 175.297H327.844Z" fill="#DDE0E3"/>
<path opacity="0.05" d="M340.144 154.958L317.48 171.23L319.321 174.426L345.858 160.963C349.054 159.317 350.604 155.636 349.345 152.247C346.246 143.142 340.144 154.958 340.144 154.958Z" fill="black"/>
<path opacity="0.05" d="M334.042 136.362L341.499 155.539L318.352 168.905L320.676 174.91L347.214 161.447C350.41 159.801 351.959 156.12 350.7 152.73C347.504 143.529 341.015 127.355 335.494 131.229C333.848 132.391 333.267 134.522 334.042 136.362Z" fill="black"/>
<path d="M333.655 135.394L341.113 154.571L318.449 169.874L319.805 174.039L346.73 160.576C349.926 158.93 351.476 155.249 350.217 151.859C347.021 142.658 340.532 126.484 335.011 130.358C333.461 131.423 332.88 133.554 333.655 135.394Z" fill="#E30072"/>
<path d="M336.464 252.684H325.81L311.766 255.299C311.282 255.395 310.895 255.783 310.895 256.267C310.895 256.848 311.282 257.236 311.766 257.236C311.766 257.236 311.766 257.236 311.863 257.236H336.367L336.464 252.684Z" fill="#212D38"/>
<path opacity="0.05" d="M334.625 136.461C334.625 136.461 340.146 143.919 339.274 149.439L334.625 136.461Z" fill="black"/>
<path opacity="0.05" d="M323.293 124.062C325.617 124.934 328.136 125.031 330.557 124.449V115.539H323.293V124.062Z" fill="black"/>
<path d="M327.553 123.966C334.453 123.966 340.047 118.373 340.047 111.472C340.047 104.572 334.453 98.9785 327.553 98.9785C320.652 98.9785 315.059 104.572 315.059 111.472C315.059 118.373 320.652 123.966 327.553 123.966Z" fill="#FDA57D"/>
<path d="M271.186 141.594C271.186 141.594 259.176 143.434 259.564 145.274C259.951 147.114 271.186 145.758 271.186 145.758V141.594Z" fill="#FDA57D"/>
<path d="M318.742 169.875C318.742 169.875 307.992 175.589 308.96 177.139C309.929 178.689 320.098 173.749 320.098 173.749L318.742 169.875Z" fill="#FDA57D"/>
<path d="M318.449 138.785C318.449 138.785 309.151 140.819 316.125 151.763L318.449 138.785Z" fill="#E30072"/>
<path opacity="0.05" d="M329.492 139.754C329.492 139.754 320.194 141.788 327.168 152.732L329.492 139.754Z" fill="black"/>
<path d="M329.976 139.754C329.976 139.754 320.679 141.788 327.652 152.732L329.976 139.754Z" fill="#E30072"/>
<path d="M336.854 115.444C334.433 119.415 334.53 124.645 336.176 129.003C337.823 133.362 340.728 137.139 343.731 140.819C346.539 144.209 349.542 147.599 353.513 149.536C361.552 153.313 371.237 149.73 378.404 144.5C377.338 145.081 376.079 145.371 374.82 145.371C373.561 145.371 372.399 144.403 372.205 143.144C372.012 141.691 373.464 140.626 374.336 139.366C375.789 137.042 375.789 134.136 374.336 131.909C372.786 129.681 370.559 128.132 368.041 127.454C365.91 126.873 363.489 126.485 362.229 124.645C360.292 121.642 363.295 117.962 363.585 114.379C363.779 110.892 361.164 107.793 357.581 107.405C355.644 107.212 353.319 107.793 351.866 106.437C351.479 106.049 351.188 105.565 350.995 104.984C350.026 102.659 350.51 99.9476 350.607 97.4294C350.704 94.9113 350.413 92.0057 348.476 90.456C347.314 89.5844 345.861 89.1001 344.409 88.9064C339.953 88.3253 335.498 88.3253 331.14 89.1001C325.038 89.9718 318.646 91.9088 314.578 96.5577C310.51 101.207 309.929 109.342 314.772 113.119C313.029 111.764 321.552 103.822 325.426 106.34C330.075 109.052 330.171 115.735 336.854 115.444Z" fill="#2F4051"/>
</g>
<defs>
<linearGradient id="paint0_linear_28:56346" x1="187.067" y1="259.365" x2="187.067" y2="105.941" gradientUnits="userSpaceOnUse">
<stop stop-color="#808080" stop-opacity="0.25"/>
<stop offset="0.54" stop-color="#808080" stop-opacity="0.12"/>
<stop offset="1" stop-color="#808080" stop-opacity="0.1"/>
</linearGradient>
<linearGradient id="paint1_linear_28:56346" x1="318.981" y1="259.752" x2="318.981" y2="86.0062" gradientUnits="userSpaceOnUse">
<stop stop-color="#808080" stop-opacity="0.25"/>
<stop offset="0.54" stop-color="#808080" stop-opacity="0.12"/>
<stop offset="1" stop-color="#808080" stop-opacity="0.1"/>
</linearGradient>
<clipPath id="clip0_28:56346">
<rect width="400" height="400" fill="white"/>
</clipPath>
</defs>
</svg>
