<svg width="400" height="400" viewBox="0 0 400 400" fill="none" xmlns="http://www.w3.org/2000/svg">
<g clip-path="url(#clip0_28:56341)">
<path opacity="0.2" d="M362.097 150.615H339.07V162.646H362.097V150.615Z" fill="#9EA6AD"/>
<path opacity="0.2" d="M363.906 165.232H340.879V177.263H363.906V165.232Z" fill="#9EA6AD"/>
<path opacity="0.2" d="M344.762 63.5508H321.734V75.5818H344.762V63.5508Z" fill="#9EA6AD"/>
<path opacity="0.2" d="M361.191 77.3926H338.164V89.4236H361.191V77.3926Z" fill="#9EA6AD"/>
<path opacity="0.2" d="M316.816 64.457H293.789V76.4881H316.816V64.457Z" fill="#9EA6AD"/>
<path opacity="0.2" d="M390.945 91.1055H367.918V103.137H390.945V91.1055Z" fill="#9EA6AD"/>
<path opacity="0.2" d="M363 92.0117H339.973V104.043H363V92.0117Z" fill="#9EA6AD"/>
<path opacity="0.2" d="M333.246 78.2988H310.219V90.3299H333.246V78.2988Z" fill="#9EA6AD"/>
<path opacity="0.2" d="M389.652 183.473H366.625V195.504H389.652V183.473Z" fill="#9EA6AD"/>
<path opacity="0.2" d="M361.578 184.379H338.551V196.41H361.578V184.379Z" fill="#9EA6AD"/>
<path d="M58.2152 147.51C58.2152 147.51 90.6861 179.981 72.4455 228.234C54.2049 276.488 103.881 356.695 103.881 356.695C103.881 356.695 103.364 356.565 102.329 356.436C35.5762 344.664 2.32907 268.208 39.4571 211.546C53.2993 190.459 64.6835 165.75 58.2152 147.51Z" fill="#76D7E0"/>
<path d="M58.2148 147.51C58.2148 147.51 76.5848 187.355 58.2148 219.955C39.8448 252.555 55.11 343.758 103.881 356.824" stroke="#E4FCFF" stroke-width="2" stroke-miterlimit="10"/>
<path d="M0.257812 279.076C0.257812 279.076 37.3859 273.125 40.7494 306.372C44.1129 339.619 112.159 344.276 112.159 344.276L110.866 345.052C54.7209 381.922 1.16338 368.597 9.18407 319.567C12.1595 301.456 11.9008 283.215 0.257812 279.076Z" fill="#5CC7D0"/>
<path d="M0.257812 279.074C0.257812 279.074 29.1065 285.413 26.6485 311.545C24.1905 337.677 69.4687 369.113 112.03 344.275" stroke="#E4FCFF" stroke-width="2" stroke-miterlimit="10"/>
<path opacity="0.2" d="M23.5467 151.002H0.519531V163.033H23.5467V151.002Z" fill="#9EA6AD"/>
<path opacity="0.2" d="M39.9725 164.844H16.9453V176.875H39.9725V164.844Z" fill="#9EA6AD"/>
<path opacity="0.2" d="M164.555 25H141.527V37.031H164.555V25Z" fill="#9EA6AD"/>
<path opacity="0.2" d="M346.57 245.957H323.543V257.988H346.57V245.957Z" fill="#9EA6AD"/>
<path opacity="0.2" d="M41.6561 179.463H18.6289V191.494H41.6561V179.463Z" fill="#9EA6AD"/>
<path opacity="0.2" d="M180.984 38.7129H157.957V50.7439H180.984V38.7129Z" fill="#9EA6AD"/>
<path opacity="0.2" d="M96.7654 119.955H73.7383V131.986H96.7654V119.955Z" fill="#9EA6AD"/>
<path opacity="0.2" d="M113.195 133.668H90.168V145.699H113.195V133.668Z" fill="#9EA6AD"/>
<path opacity="0.2" d="M157.051 126.164H134.023V138.195H157.051V126.164Z" fill="#9EA6AD"/>
<path opacity="0.2" d="M114.879 148.416H91.8516V160.447H114.879V148.416Z" fill="#9EA6AD"/>
<path opacity="0.2" d="M377.621 245.957H354.594V257.988H377.621V245.957Z" fill="#9EA6AD"/>
<path d="M319.924 198.609C318.372 190.33 317.466 181.921 317.207 173.512C316.561 159.282 307.117 146.992 293.533 142.723C291.075 141.947 288.488 141.3 285.513 140.653C259.639 135.22 251.877 140.007 250.972 140.653C250.196 139.23 249.549 137.807 249.031 136.384L248.902 135.996C253.947 130.563 257.181 123.577 257.699 116.074C261.968 112.064 264.426 106.63 264.555 100.809C264.426 95.8928 262.615 91.1063 259.381 87.3546V79.3339C259.381 60.8346 244.374 45.8281 225.875 45.8281H223.158C204.659 45.8281 189.652 60.8346 189.652 79.3339V87.6134C186.677 91.2356 185.125 95.7634 185.125 100.55C185.254 106.242 187.582 111.546 191.593 115.556C192.11 123.318 195.344 130.563 200.778 136.126C200.907 137.419 201.166 138.713 201.295 140.136L155.112 149.838C155.112 149.838 137.259 150.615 125.875 174.289C116.172 194.34 96.8968 245.828 91.2047 261.223L89.6523 265.621C89.6523 265.621 89.9111 265.492 90.1698 265.104L89.6523 266.527C89.6523 266.527 89.9111 266.268 90.4285 265.751C89.6523 272.219 89.523 283.215 97.9318 284.509C105.047 285.673 123.158 286.19 136.871 286.32H137.777C146.832 286.449 153.818 286.449 153.818 286.449V286.32H301.295V284.767C301.295 283.344 301.037 282.051 300.519 280.757L300.778 280.498C301.554 281.533 302.071 282.827 302.33 284.12C302.33 284.25 302.33 284.379 302.201 284.509L302.33 284.25C302.33 284.638 302.33 285.026 302.201 285.414C302.201 285.414 321.088 236.643 320.959 207.536C320.7 204.69 320.441 201.585 319.924 198.609ZM201.942 146.863C201.683 145.44 201.554 144.017 201.425 142.723C201.683 143.888 201.813 145.311 201.942 146.863ZM144.633 251.65V263.293L137.388 264.845L144.633 251.65Z" fill="url(#paint0_linear_28:56341)"/>
<path d="M223.674 50.6146C242.173 50.6146 257.18 65.6211 257.18 84.1204V98.4801H190.168V84.1204C190.168 65.6211 205.174 50.4852 223.674 50.6146C223.674 50.4852 223.674 50.4852 223.674 50.6146Z" fill="#E30072"/>
<path d="M223.933 129.398C245.081 129.398 262.225 117.64 262.225 103.136C262.225 88.6326 245.081 76.875 223.933 76.875C202.785 76.875 185.641 88.6326 185.641 103.136C185.641 117.64 202.785 129.398 223.933 129.398Z" fill="#E11687"/>
<path d="M199.482 128.494C199.482 128.494 207.502 170.279 199.482 181.534C191.461 192.789 223.802 197.187 223.802 197.187L257.438 185.027L262.095 155.014C262.095 155.014 241.655 143.5 245.924 120.344L199.482 128.494Z" fill="#F7C4A7"/>
<path d="M298.447 269.244C298.447 269.244 300.517 278.429 289.133 279.981C282.406 281.016 275.42 280.887 268.693 279.722L266.105 256.695H292.884L298.447 269.244Z" fill="#F7C4A7"/>
<path d="M95.4717 257.6C95.4717 257.6 90.4264 278.169 101.94 280.109C113.454 282.05 155.627 281.92 155.627 281.92V257.47L136.481 261.61L118.499 244.404L95.4717 257.6Z" fill="#F7C4A7"/>
<path opacity="0.1" d="M201.939 141.948L157.049 151.391C157.049 151.391 139.972 152.038 128.847 174.807C117.721 197.575 93.918 262.517 93.918 262.517C93.918 262.517 114.358 241.948 138.291 263.94L154.203 235.091L150.71 280.757H274.254V259.153C274.254 259.153 299.998 272.995 298.187 280.757C298.187 280.757 320.309 223.836 315.522 197.963C314.099 189.942 313.193 181.922 312.935 173.772C312.288 160.059 303.232 148.286 290.037 144.276C287.708 143.5 285.121 142.853 282.275 142.336C255.755 136.773 249.028 142.336 249.028 142.336C249.028 142.336 243.853 159.024 243.983 166.656C244.112 176.359 230.14 182.827 230.14 182.827C230.14 182.827 209.442 177.911 208.536 173.901C207.631 169.891 200.257 146.734 201.939 141.948Z" fill="black"/>
<path d="M201.939 141.041L157.049 150.485C157.049 150.485 139.972 151.132 128.847 173.9C117.721 196.669 93.918 261.61 93.918 261.61C93.918 261.61 114.358 241.041 138.291 263.033L154.203 234.185L150.71 279.851H274.254V258.247C274.254 258.247 299.998 272.089 298.187 279.851C298.187 279.851 320.309 222.93 315.522 197.186C314.099 189.165 313.193 181.145 312.935 172.995C312.417 159.282 303.232 147.38 290.037 143.37C287.708 142.594 285.121 141.947 282.275 141.429C255.755 135.867 249.028 141.429 249.028 141.429C249.028 141.429 243.853 158.118 243.983 165.75C244.112 175.453 230.14 181.921 230.14 181.921C230.14 181.921 209.442 177.005 208.536 172.995C207.631 168.984 200.257 145.698 201.939 141.041Z" fill="#5CC7D0"/>
<path opacity="0.1" d="M247.865 139.1C245.925 133.796 245.536 127.975 246.571 122.412L200.129 130.562C200.129 130.562 200.776 134.055 201.552 139.359C213.712 152.037 233.893 152.425 246.571 140.135C246.959 139.877 247.348 139.488 247.865 139.1Z" fill="black"/>
<path d="M255.758 115.167C255.499 132.761 241.01 146.862 223.416 146.603C206.469 146.345 192.627 132.891 191.98 115.944V115.167C191.98 103.007 198.966 91.8816 209.833 86.4482C210.739 85.9307 211.773 85.5426 212.808 85.1545C218.112 83.214 223.675 82.6966 229.238 83.6021C243.727 86.0601 254.723 98.2205 255.629 112.968C255.629 113.744 255.758 114.391 255.758 115.167Z" fill="#F7C4A7"/>
<g opacity="0.1">
<path opacity="0.1" d="M212.679 85.9316C211.645 86.3197 210.739 86.7078 209.704 87.2253C198.708 92.5293 191.852 103.655 191.852 115.945V116.721C192.886 116.721 193.792 116.462 194.698 116.074C202.46 112.452 207.117 101.326 208.928 93.5642C209.704 90.7182 210.351 87.6134 212.679 85.9316Z" fill="black"/>
<path opacity="0.1" d="M237.128 86.8369C234.54 85.6726 231.953 84.8964 229.236 84.3789C231.436 84.8964 233.506 86.19 234.929 88.0012C235.575 88.9067 236.222 89.9416 236.74 91.1059C228.202 87.3543 218.37 87.4837 209.961 91.6234C212.031 96.0219 218.24 98.3504 222.38 100.032C226.908 101.714 231.565 103.396 236.093 104.819L231.953 101.455L241.268 102.878C241.397 101.067 241.138 99.1266 240.621 97.4449C242.432 98.8679 244.76 99.3854 246.701 100.55C250.323 102.878 251.876 107.147 253.816 111.028C254.333 112.063 254.98 112.969 255.886 113.745C254.851 102.102 247.736 91.7528 237.128 86.8369Z" fill="black"/>
</g>
<path d="M212.679 85.2852C211.645 85.6733 210.739 86.0614 209.704 86.5788C198.708 91.8828 191.852 103.008 191.852 115.298V116.074C192.886 116.074 193.792 115.816 194.698 115.427C202.46 111.805 207.117 100.68 208.928 92.9178C209.704 89.9423 210.351 86.8375 212.679 85.2852Z" fill="#212D38"/>
<path d="M237.128 86.1904C234.67 85.0261 231.953 84.2499 229.236 83.7324C231.436 84.2499 233.506 85.5435 234.929 87.3547C235.575 88.2602 236.222 89.2952 236.74 90.4595C228.202 86.7078 218.37 86.9666 209.961 90.9769C212.031 95.3754 218.24 97.704 222.38 99.3857C226.908 101.067 231.565 102.749 236.093 104.172L231.953 100.809L241.268 102.232C241.397 100.421 241.138 98.4802 240.621 96.7984C242.432 98.2214 244.76 98.7389 246.701 99.9032C250.323 102.232 251.876 106.63 253.816 110.382C254.333 111.417 254.98 112.322 255.886 113.099C254.851 101.326 247.736 91.1063 237.128 86.1904Z" fill="#212D38"/>
<path opacity="0.1" d="M188.355 109.864C188.355 109.864 221.214 68.9844 259.248 109.864L256.014 100.679C256.014 100.679 238.161 74.6766 225.484 80.2393C212.806 85.802 200.387 89.8124 200.387 89.8124L188.355 109.864Z" fill="black"/>
<path d="M188.355 109.218C188.355 109.218 221.214 68.338 259.248 109.218L256.014 100.033C256.014 100.033 238.161 74.0301 225.484 79.5928C212.806 85.1556 200.387 89.1659 200.387 89.1659L188.355 109.218Z" fill="#E30072"/>
<path opacity="0.1" d="M161.318 197.186C161.318 197.186 154.332 215.944 164.164 232.891C173.995 249.838 155.496 256.823 155.496 256.823" fill="black"/>
<path opacity="0.1" d="M275.292 180.24C275.292 180.24 287.452 195.764 279.561 209.606C271.67 223.449 272.058 256.696 272.058 256.696" fill="black"/>
<path d="M150.583 270.537H286.159C292.368 270.537 297.413 275.582 297.413 281.792H139.328C139.328 275.582 144.373 270.537 150.583 270.537Z" fill="#212D38"/>
<path d="M164.296 193.176H272.316C281.889 193.176 289.651 200.938 289.651 210.511V273.124H147.09V210.381C147.09 200.938 154.722 193.176 164.296 193.176Z" fill="#212D38"/>
<path d="M218.241 245.052C222.885 245.052 226.65 241.287 226.65 236.643C226.65 231.999 222.885 228.234 218.241 228.234C213.597 228.234 209.832 231.999 209.832 236.643C209.832 241.287 213.597 245.052 218.241 245.052Z" fill="white"/>
<g opacity="0.1">
<path d="M190.168 90.7171C190.168 90.7171 222.38 58.505 257.309 90.0703L190.168 90.7171Z" fill="#E30072"/>
<path d="M190.168 90.7171C190.168 90.7171 222.38 58.505 257.309 90.0703" stroke="black" stroke-miterlimit="10"/>
</g>
<path d="M265.328 88.6484H262.094V107.018H265.328V88.6484Z" fill="#9EA6AD"/>
<path d="M257.828 100.551C264.038 100.551 268.954 105.596 268.954 111.676V112.452C268.954 118.662 263.908 123.578 257.828 123.578V100.551Z" fill="#2F4051"/>
<path d="M258.216 99.5156C259.639 99.5156 260.674 100.68 260.674 102.103V122.284C260.674 123.707 259.51 124.871 258.216 124.871C256.793 124.871 255.629 123.707 255.629 122.284V101.974C255.629 100.68 256.793 99.5156 258.216 99.5156Z" fill="#9EA6AD"/>
<path d="M184.863 89.0371H181.629V107.407H184.863V89.0371Z" fill="#9EA6AD"/>
<path d="M189.262 123.965C183.053 123.965 178.137 118.919 178.137 112.839V112.063C178.137 105.853 183.182 100.938 189.262 100.938V123.965Z" fill="#2F4051"/>
<path d="M188.876 125.129C187.453 125.129 186.418 123.964 186.418 122.671C186.418 122.671 186.418 122.671 186.418 122.541V102.36C186.418 100.937 187.582 99.9023 188.876 99.9023C190.299 99.9023 191.463 100.937 191.463 102.36C191.463 102.36 191.463 102.36 191.463 102.49V122.671C191.463 123.964 190.299 125.129 188.876 125.129Z" fill="#9EA6AD"/>
<path d="M261.839 69.114C257.44 60.0584 247.867 48.9329 227.298 48.0273H227.039L219.795 48.4154C199.355 49.321 189.782 60.3171 185.383 69.5021C182.408 75.7117 180.855 82.4387 180.855 89.1658H183.313H185.901C186.03 83.0856 187.453 77.1347 190.04 71.7013C195.603 60.3171 205.823 54.2369 220.441 53.5901L226.91 53.202C241.528 53.7195 251.748 59.7997 257.311 71.3132C259.898 76.7466 261.321 82.6975 261.451 88.7777H263.908H266.366C266.237 81.9213 264.685 75.1942 261.839 69.114Z" fill="#2F4051"/>
<path d="M376.843 281.922H33.1172V374.16H376.843V281.922Z" fill="#DDE0E3"/>
<path opacity="0.1" d="M376.843 288.131H33.1172V300.162H376.843V288.131Z" fill="#212D38"/>
<path d="M399.999 280.627H10.0898V292.658H399.999V280.627Z" fill="#DDE0E3"/>
</g>
<defs>
<linearGradient id="paint0_linear_28:56341" x1="205.014" y1="286.578" x2="205.014" y2="45.8022" gradientUnits="userSpaceOnUse">
<stop stop-color="#808080" stop-opacity="0.25"/>
<stop offset="0.54" stop-color="#808080" stop-opacity="0.12"/>
<stop offset="1" stop-color="#808080" stop-opacity="0.1"/>
</linearGradient>
<clipPath id="clip0_28:56341">
<rect width="400" height="400" fill="white"/>
</clipPath>
</defs>
</svg>
