<svg width="50" height="50" viewBox="0 0 50 50" fill="none" xmlns="http://www.w3.org/2000/svg">
<path d="M0 25C0 11.1929 11.1929 0 25 0V0C38.8071 0 50 11.1929 50 25V25C50 38.8071 38.8071 50 25 50V50C11.1929 50 0 38.8071 0 25V25Z" fill="#E7AF22"/>
<path fill-rule="evenodd" clip-rule="evenodd" d="M31.6665 26.6667H18.3332V23.3334H31.6665V26.6667ZM28.3332 33.3334H18.3332V30H28.3332V33.3334ZM34.9998 38.3334H14.9998V11.6667H28.3332V18.3334H34.9998V38.3334ZM37.3565 14.0234L32.6432 9.31004C32.0182 8.68504 31.1698 8.33337 30.2865 8.33337H14.9998C13.1598 8.33337 11.6665 9.82671 11.6665 11.6667V38.3334C11.6665 40.1734 13.1598 41.6667 14.9998 41.6667H34.9998C36.8398 41.6667 38.3332 40.1734 38.3332 38.3334V16.3817C38.3332 15.4967 37.9815 14.6484 37.3565 14.0234Z" fill="white"/>
<mask id="mask0_35_51141" style="mask-type:alpha" maskUnits="userSpaceOnUse" x="11" y="8" width="28" height="34">
<path fill-rule="evenodd" clip-rule="evenodd" d="M31.6665 26.6667H18.3332V23.3334H31.6665V26.6667ZM28.3332 33.3334H18.3332V30H28.3332V33.3334ZM34.9998 38.3334H14.9998V11.6667H28.3332V18.3334H34.9998V38.3334ZM37.3565 14.0234L32.6432 9.31004C32.0182 8.68504 31.1698 8.33337 30.2865 8.33337H14.9998C13.1598 8.33337 11.6665 9.82671 11.6665 11.6667V38.3334C11.6665 40.1734 13.1598 41.6667 14.9998 41.6667H34.9998C36.8398 41.6667 38.3332 40.1734 38.3332 38.3334V16.3817C38.3332 15.4967 37.9815 14.6484 37.3565 14.0234Z" fill="white"/>
</mask>
<g mask="url(#mask0_35_51141)">
</g>
</svg>
