<svg width="50" height="50" viewBox="0 0 50 50" fill="none" xmlns="http://www.w3.org/2000/svg">
<path d="M0 25C0 11.1929 11.1929 0 25 0V0C38.8071 0 50 11.1929 50 25V25C50 38.8071 38.8071 50 25 50V50C11.1929 50 0 38.8071 0 25V25Z" fill="#800080"/>
<path fill-rule="evenodd" clip-rule="evenodd" d="M14.9999 8.33337H34.9999C35.9204 8.33337 36.6666 9.07957 36.6666 10V40C36.6666 40.9205 35.9204 41.6667 34.9999 41.6667H14.9999C14.0794 41.6667 13.3333 40.9205 13.3333 40V10C13.3333 9.07957 14.0794 8.33337 14.9999 8.33337ZM33.0555 10.6322H33.0949C33.8401 10.6322 34.4441 11.224 34.4441 11.954V35.7471C34.4441 36.4771 33.8401 37.0689 33.0949 37.0689H16.9045C16.1593 37.0689 15.5553 36.4771 15.5553 35.7471V11.954C15.5553 11.224 16.1593 10.6322 16.9045 10.6322H27.5V20.6609L30.2777 17.7874L33.0555 20.6609V10.6322ZM26.6667 39.3678C26.6667 40.0027 26.1693 40.5173 25.5556 40.5173C24.942 40.5173 24.4445 40.0027 24.4445 39.3678C24.4445 38.733 24.942 38.2184 25.5556 38.2184C26.1693 38.2184 26.6667 38.733 26.6667 39.3678Z" fill="white"/>
</svg>
