<svg width="50" height="50" viewBox="0 0 50 50" fill="none" xmlns="http://www.w3.org/2000/svg">
<path d="M0 25C0 11.1929 11.1929 0 25 0C38.8071 0 50 11.1929 50 25C50 38.8071 38.8071 50 25 50C11.1929 50 0 38.8071 0 25Z" fill="#011A7E"/>
<path fill-rule="evenodd" clip-rule="evenodd" d="M8.33325 11.6667V31.6667C8.33325 32.5871 9.07944 33.3333 9.99992 33.3333H21.6667V36.6666H28.3334V33.3333H39.9999C40.9204 33.3333 41.6666 32.5871 41.6666 31.6667V11.6667C41.6666 10.7462 40.9204 10 39.9999 10H17.2986H13.1607H9.99992C9.07944 10 8.33325 10.7462 8.33325 11.6667ZM11.7814 23.3333V11.5556H11.4999C10.6714 11.5556 9.99986 12.2023 9.99986 13V30.3334C9.99986 31.1311 10.6714 31.7778 11.4999 31.7778H38.4999C39.3283 31.7778 39.9999 31.1311 39.9999 30.3334V13C39.9999 12.2023 39.3283 11.5556 38.4999 11.5556H18.6779V23.3333L15.2297 20L11.7814 23.3333ZM18.3333 36.6667H31.6666H31.6667C32.5872 36.6667 33.3334 37.4129 33.3334 38.3334C33.3334 39.2538 32.5872 40 31.6667 40H31.6666H18.3333H18.3333C17.4128 40 16.6666 39.2538 16.6666 38.3334C16.6666 37.4129 17.4128 36.6667 18.3333 36.6667H18.3333Z" fill="white"/>
</svg>
