<svg width="50" height="50" viewBox="0 0 50 50" fill="none" xmlns="http://www.w3.org/2000/svg">
<path d="M0 25C0 11.1929 11.1929 0 25 0V0C38.8071 0 50 11.1929 50 25V25C50 38.8071 38.8071 50 25 50V50C11.1929 50 0 38.8071 0 25V25Z" fill="#2F4051"/>
<path fill-rule="evenodd" clip-rule="evenodd" d="M28.3332 20C26.4948 20 24.9998 18.505 24.9998 16.6667C24.9998 14.8283 26.4948 13.3333 28.3332 13.3333C30.1715 13.3333 31.6665 14.8283 31.6665 16.6667C31.6665 18.505 30.1715 20 28.3332 20ZM28.3332 10C24.6515 10 21.6665 12.985 21.6665 16.6667C21.6665 20.3483 24.6515 23.3333 28.3332 23.3333C32.0148 23.3333 34.9998 20.3483 34.9998 16.6667C34.9998 12.985 32.0148 10 28.3332 10ZM21.6032 26.77C21.4465 25.7733 20.6232 25 19.5832 25H13.7498C12.5998 25 11.6665 25.9333 11.6665 27.0833V31.6667H18.3332V40H38.3332V30.8333C38.3332 28.5317 36.4682 26.6667 34.1665 26.6667H22.4998C22.1915 26.6667 21.8932 26.705 21.6032 26.77ZM34.1665 30C34.6248 30 34.9998 30.375 34.9998 30.8333V36.6667H21.6665V31.6667V30.1683L22.3198 30.025C22.4115 30.005 22.4682 30 22.4998 30H34.1665ZM13.3332 20C13.3332 18.16 14.8265 16.6667 16.6665 16.6667C18.5065 16.6667 19.9998 18.16 19.9998 20C19.9998 21.84 18.5065 23.3333 16.6665 23.3333C14.8265 23.3333 13.3332 21.84 13.3332 20Z" fill="white"/>
<mask id="mask0_35_51147" style="mask-type:alpha" maskUnits="userSpaceOnUse" x="11" y="10" width="28" height="30">
<path fill-rule="evenodd" clip-rule="evenodd" d="M28.3332 20C26.4948 20 24.9998 18.505 24.9998 16.6667C24.9998 14.8283 26.4948 13.3333 28.3332 13.3333C30.1715 13.3333 31.6665 14.8283 31.6665 16.6667C31.6665 18.505 30.1715 20 28.3332 20ZM28.3332 10C24.6515 10 21.6665 12.985 21.6665 16.6667C21.6665 20.3483 24.6515 23.3333 28.3332 23.3333C32.0148 23.3333 34.9998 20.3483 34.9998 16.6667C34.9998 12.985 32.0148 10 28.3332 10ZM21.6032 26.77C21.4465 25.7733 20.6232 25 19.5832 25H13.7498C12.5998 25 11.6665 25.9333 11.6665 27.0833V31.6667H18.3332V40H38.3332V30.8333C38.3332 28.5317 36.4682 26.6667 34.1665 26.6667H22.4998C22.1915 26.6667 21.8932 26.705 21.6032 26.77ZM34.1665 30C34.6248 30 34.9998 30.375 34.9998 30.8333V36.6667H21.6665V31.6667V30.1683L22.3198 30.025C22.4115 30.005 22.4682 30 22.4998 30H34.1665ZM13.3332 20C13.3332 18.16 14.8265 16.6667 16.6665 16.6667C18.5065 16.6667 19.9998 18.16 19.9998 20C19.9998 21.84 18.5065 23.3333 16.6665 23.3333C14.8265 23.3333 13.3332 21.84 13.3332 20Z" fill="white"/>
</mask>
<g mask="url(#mask0_35_51147)">
</g>
</svg>
