<svg width="16" height="16" viewBox="0 0 16 16" fill="none" xmlns="http://www.w3.org/2000/svg">
<path fill-rule="evenodd" clip-rule="evenodd" d="M7.99345 4.85604C7.86212 4.98271 7.79612 5.16871 7.79612 5.41537C7.79612 5.65337 7.86345 5.83737 7.99812 5.96804C8.13278 6.09871 8.32345 6.16404 8.56945 6.16404C8.80945 6.16404 8.99678 6.09737 9.13145 5.96337C9.26612 5.83004 9.33345 5.64737 9.33345 5.41537C9.33345 5.17471 9.26678 4.98937 9.13345 4.86004C9.00012 4.73137 8.81212 4.66671 8.56945 4.66671C8.31745 4.66671 8.12545 4.73004 7.99345 4.85604ZM8.06599 10.0479C8.06599 10.1232 8.06599 10.2012 8.28932 10.2012C8.42399 10.2012 8.54532 10.1832 8.64799 10.1466L8.96532 10.0339L8.69532 11.2046L8.58532 11.2312C8.30265 11.2986 8.03265 11.3332 7.78265 11.3332C7.39199 11.3332 7.20798 11.2392 6.99265 11.0539C6.77598 10.8679 6.66665 10.6039 6.66665 10.2699C6.66665 10.1126 6.68532 9.95724 6.72198 9.80591L7.39332 6.88324H8.78599L8.15999 9.53924C8.07799 9.89057 8.06599 10.0086 8.06599 10.0479ZM7.99992 1.33337C4.31792 1.33337 1.33325 4.31804 1.33325 8.00004C1.33325 11.6814 4.31792 14.6667 7.99992 14.6667C11.6813 14.6667 14.6666 11.6814 14.6666 8.00004C14.6666 4.31804 11.6813 1.33337 7.99992 1.33337ZM7.99992 2.66671C10.9406 2.66671 13.3333 5.05937 13.3333 8.00004C13.3333 10.9407 10.9406 13.3334 7.99992 13.3334C5.05925 13.3334 2.66659 10.9407 2.66659 8.00004C2.66659 5.05937 5.05925 2.66671 7.99992 2.66671Z" fill="#5D6977"/>
<mask id="mask0_35_53412" style="mask-type:alpha" maskUnits="userSpaceOnUse" x="1" y="1" width="14" height="14">
<path fill-rule="evenodd" clip-rule="evenodd" d="M7.99345 4.85604C7.86212 4.98271 7.79612 5.16871 7.79612 5.41537C7.79612 5.65337 7.86345 5.83737 7.99812 5.96804C8.13278 6.09871 8.32345 6.16404 8.56945 6.16404C8.80945 6.16404 8.99678 6.09737 9.13145 5.96337C9.26612 5.83004 9.33345 5.64737 9.33345 5.41537C9.33345 5.17471 9.26678 4.98937 9.13345 4.86004C9.00012 4.73137 8.81212 4.66671 8.56945 4.66671C8.31745 4.66671 8.12545 4.73004 7.99345 4.85604ZM8.06599 10.0479C8.06599 10.1232 8.06599 10.2012 8.28932 10.2012C8.42399 10.2012 8.54532 10.1832 8.64799 10.1466L8.96532 10.0339L8.69532 11.2046L8.58532 11.2312C8.30265 11.2986 8.03265 11.3332 7.78265 11.3332C7.39199 11.3332 7.20798 11.2392 6.99265 11.0539C6.77598 10.8679 6.66665 10.6039 6.66665 10.2699C6.66665 10.1126 6.68532 9.95724 6.72198 9.80591L7.39332 6.88324H8.78599L8.15999 9.53924C8.07799 9.89057 8.06599 10.0086 8.06599 10.0479ZM7.99992 1.33337C4.31792 1.33337 1.33325 4.31804 1.33325 8.00004C1.33325 11.6814 4.31792 14.6667 7.99992 14.6667C11.6813 14.6667 14.6666 11.6814 14.6666 8.00004C14.6666 4.31804 11.6813 1.33337 7.99992 1.33337ZM7.99992 2.66671C10.9406 2.66671 13.3333 5.05937 13.3333 8.00004C13.3333 10.9407 10.9406 13.3334 7.99992 13.3334C5.05925 13.3334 2.66659 10.9407 2.66659 8.00004C2.66659 5.05937 5.05925 2.66671 7.99992 2.66671Z" fill="white"/>
</mask>
<g mask="url(#mask0_35_53412)">
</g>
</svg>
