<svg width="50" height="50" viewBox="0 0 50 50" fill="none" xmlns="http://www.w3.org/2000/svg">
<path d="M0 25C0 11.1929 11.1929 0 25 0V0C38.8071 0 50 11.1929 50 25V25C50 38.8071 38.8071 50 25 50V50C11.1929 50 0 38.8071 0 25V25Z" fill="#1B838B"/>
<path fill-rule="evenodd" clip-rule="evenodd" d="M30.7747 36.9986C32.1613 34.3286 33.0913 30.7136 33.2913 26.667H38.218C37.6447 31.2303 34.7613 35.0736 30.7747 36.9986ZM11.7813 26.667H16.7097C16.9097 30.7136 17.838 34.3286 19.2247 36.9986C15.2397 35.0736 12.3547 31.2303 11.7813 26.667ZM19.2247 13.0003C17.838 15.672 16.9097 19.2853 16.7097 23.3336H11.7813C12.3547 18.7703 15.2397 14.927 19.2247 13.0003ZM26.6663 23.3336V11.782C27.2013 11.8503 27.7247 11.952 28.238 12.0803C29.973 14.3486 31.3663 18.3286 31.623 23.3336H26.6663ZM26.6663 38.217V26.667H31.623C31.3663 31.6703 29.973 35.6503 28.238 37.9203C27.7247 38.0486 27.2013 38.1503 26.6663 38.217ZM23.333 26.667V38.217C22.798 38.1503 22.2747 38.0486 21.763 37.9203C20.028 35.6503 18.633 31.6703 18.3763 26.667H23.333ZM23.333 11.782V23.3336H18.3763C18.633 18.3286 20.028 14.3486 21.763 12.0803C22.2747 11.952 22.798 11.8503 23.333 11.782ZM38.218 23.3336H33.2913C33.0913 19.2853 32.1613 15.672 30.7747 13.0003C34.7613 14.927 37.6447 18.7703 38.218 23.3336ZM24.9997 8.33362C15.7947 8.33362 8.33301 15.7953 8.33301 25.0003C8.33301 34.2036 15.7947 41.667 24.9997 41.667C34.2047 41.667 41.6663 34.2036 41.6663 25.0003C41.6663 15.7953 34.2047 8.33362 24.9997 8.33362Z" fill="white"/>
<mask id="mask0_35_51146" style="mask-type:alpha" maskUnits="userSpaceOnUse" x="8" y="8" width="34" height="34">
<path fill-rule="evenodd" clip-rule="evenodd" d="M30.7747 36.9986C32.1613 34.3286 33.0913 30.7136 33.2913 26.667H38.218C37.6447 31.2303 34.7613 35.0736 30.7747 36.9986ZM11.7813 26.667H16.7097C16.9097 30.7136 17.838 34.3286 19.2247 36.9986C15.2397 35.0736 12.3547 31.2303 11.7813 26.667ZM19.2247 13.0003C17.838 15.672 16.9097 19.2853 16.7097 23.3336H11.7813C12.3547 18.7703 15.2397 14.927 19.2247 13.0003ZM26.6663 23.3336V11.782C27.2013 11.8503 27.7247 11.952 28.238 12.0803C29.973 14.3486 31.3663 18.3286 31.623 23.3336H26.6663ZM26.6663 38.217V26.667H31.623C31.3663 31.6703 29.973 35.6503 28.238 37.9203C27.7247 38.0486 27.2013 38.1503 26.6663 38.217ZM23.333 26.667V38.217C22.798 38.1503 22.2747 38.0486 21.763 37.9203C20.028 35.6503 18.633 31.6703 18.3763 26.667H23.333ZM23.333 11.782V23.3336H18.3763C18.633 18.3286 20.028 14.3486 21.763 12.0803C22.2747 11.952 22.798 11.8503 23.333 11.782ZM38.218 23.3336H33.2913C33.0913 19.2853 32.1613 15.672 30.7747 13.0003C34.7613 14.927 37.6447 18.7703 38.218 23.3336ZM24.9997 8.33362C15.7947 8.33362 8.33301 15.7953 8.33301 25.0003C8.33301 34.2036 15.7947 41.667 24.9997 41.667C34.2047 41.667 41.6663 34.2036 41.6663 25.0003C41.6663 15.7953 34.2047 8.33362 24.9997 8.33362Z" fill="white"/>
</mask>
<g mask="url(#mask0_35_51146)">
</g>
</svg>
