<svg width="50" height="50" viewBox="0 0 50 50" fill="none" xmlns="http://www.w3.org/2000/svg">
<path d="M0 25C0 11.1929 11.1929 0 25 0V0C38.8071 0 50 11.1929 50 25V25C50 38.8071 38.8071 50 25 50V50C11.1929 50 0 38.8071 0 25V25Z" fill="#E11687"/>
<path fill-rule="evenodd" clip-rule="evenodd" d="M30.8208 13.9478C30.8293 13.8317 30.8336 13.7146 30.8336 13.5965C30.8336 10.6898 28.2219 8.33337 25.0002 8.33337C21.7785 8.33337 19.1669 10.6898 19.1669 13.5965C19.1669 13.7146 19.1712 13.8317 19.1796 13.9478H19.1669V24.1226V24.4741H19.1797C19.3801 27.217 21.9094 29.3858 25.0002 29.3858C28.091 29.3858 30.6204 27.217 30.8208 24.4741H30.8336V24.1226V13.9478H30.8208ZM23.0559 34.5101C17.7875 33.7499 13.7164 29.9524 13.359 25.2824H13.3335V24.6132V18.5183L13.3335 18.5179C13.3335 17.7379 14.1073 17.1055 15.0619 17.1055C16.0165 17.1055 16.7903 17.7379 16.7903 18.5179L16.79 18.5418V24.8734V25.3441H16.808C17.0896 29.0249 20.6496 31.9355 24.9999 31.9355C29.3502 31.9355 32.9103 29.0249 33.1918 25.3441H33.2098V24.8734V18.5183H33.21V18.5178C33.21 17.7377 33.9838 17.1053 34.9383 17.1053C35.8929 17.1053 36.6667 17.7377 36.6667 18.5178V18.5183H36.6668V24.6132V25.2824H36.6413C36.2839 29.9523 32.213 33.7497 26.9448 34.51V38.1579H23.0559V34.5101ZM19.1668 38.158H30.8335H30.8336C31.9075 38.158 32.7781 38.9435 32.7781 39.9124C32.7781 40.8813 31.9075 41.6668 30.8336 41.6668H30.8335H19.2268C19.2069 41.6673 19.187 41.6676 19.167 41.6676C18.0931 41.6676 17.2226 40.8821 17.2226 39.9132C17.2226 38.9444 18.093 38.1589 19.1668 38.1588V38.158Z" fill="white"/>
</svg>
