<svg width="50" height="50" viewBox="0 0 50 50" fill="none" xmlns="http://www.w3.org/2000/svg">
<path d="M0 25C0 11.1929 11.1929 0 25 0C38.8071 0 50 11.1929 50 25C50 38.8071 38.8071 50 25 50C11.1929 50 0 38.8071 0 25Z" fill="#6E7881"/>
<path fill-rule="evenodd" clip-rule="evenodd" d="M25.2131 13.4895V8.49225H25.1949C25.1499 8.39979 25.026 8.33337 24.8801 8.33337C24.7343 8.33337 24.6103 8.39979 24.5653 8.49225H24.5473V8.56327L24.5472 8.56914L24.5473 8.57501V13.4895H24.5501C24.5482 13.4996 24.5473 13.5098 24.5473 13.5203C24.5473 13.6505 24.6963 13.7561 24.8802 13.7561C25.0641 13.7561 25.2131 13.6505 25.2131 13.5203C25.2131 13.5098 25.2122 13.4996 25.2103 13.4895H25.2131ZM16.7726 15.0558C16.8407 15.1685 17.0249 15.1883 17.184 15.1C17.3432 15.0118 17.417 14.8489 17.3489 14.7362C17.3435 14.7272 17.3373 14.7188 17.3304 14.711L17.3327 14.7097L14.7201 10.3846L14.7031 10.394C14.6158 10.3355 14.4737 10.3374 14.3473 10.4075C14.221 10.4775 14.1484 10.5946 14.158 10.6963L14.1438 10.7041L14.1714 10.7497C14.1746 10.7571 14.1782 10.7643 14.1825 10.7713C14.1867 10.7783 14.1914 10.7849 14.1965 10.7912L16.7564 15.0292L16.759 15.0278C16.7626 15.0374 16.7672 15.0468 16.7726 15.0558ZM32.826 15.1001C32.9851 15.1884 33.1693 15.1685 33.2374 15.0558C33.2428 15.0468 33.2474 15.0374 33.2511 15.0277L33.2537 15.0292L35.8144 10.79C35.819 10.7841 35.8233 10.778 35.8272 10.7716C35.8311 10.7652 35.8345 10.7586 35.8374 10.7519L35.8663 10.7041L35.8517 10.696C35.8609 10.5945 35.7884 10.4777 35.6623 10.4078C35.5362 10.3379 35.3944 10.3358 35.3071 10.394L35.29 10.3845L32.6774 14.7097L32.6797 14.7109C32.6728 14.7188 32.6665 14.7272 32.6611 14.7363C32.593 14.849 32.6668 15.0119 32.826 15.1001ZM36.5953 19.6325L41.2574 17.5836L41.2643 17.5804L41.2713 17.5775L41.3361 17.549L41.3433 17.5641C41.4502 17.564 41.5657 17.6444 41.6268 17.772C41.6878 17.8996 41.6761 18.0359 41.6063 18.1135L41.6137 18.1289L36.8729 20.2123L36.8718 20.2102C36.8634 20.2157 36.8545 20.2205 36.845 20.2247C36.7215 20.2789 36.5592 20.1931 36.4826 20.033C36.4059 19.8729 36.4439 19.6991 36.5674 19.6448C36.5769 19.6406 36.5865 19.6373 36.5964 19.6348L36.5953 19.6325ZM8.66906 27.3544L13.7116 26.0773L13.7162 26.0939C13.8212 26.1118 13.9201 26.2097 13.9575 26.345C13.9948 26.4803 13.9593 26.6123 13.8772 26.6775L13.8818 26.694L13.8098 26.7123L13.8046 26.7136L13.7994 26.7149L8.83923 27.9711L8.83854 27.9687C8.82901 27.9729 8.81906 27.9763 8.80872 27.9789C8.67733 28.0122 8.53272 27.9011 8.48573 27.7308C8.43874 27.5605 8.50716 27.3954 8.63855 27.3621C8.64889 27.3595 8.65931 27.3578 8.66976 27.3569L8.66906 27.3544ZM41.2404 27.3544L36.1979 26.0773L36.1933 26.0939C36.0883 26.1118 35.9893 26.2097 35.952 26.345C35.9147 26.4803 35.9502 26.6123 36.0322 26.6775L36.0277 26.694L36.0999 26.7123L36.1048 26.7136L36.1098 26.7148L41.0702 27.9711L41.0709 27.9687C41.0805 27.9728 41.0904 27.9763 41.1008 27.9789C41.2322 28.0122 41.3768 27.9011 41.4238 27.7308C41.4707 27.5605 41.4023 27.3954 41.2709 27.3621C41.2606 27.3595 41.2502 27.3578 41.2397 27.3569L41.2404 27.3544ZM13.1548 20.1666C13.2783 20.2209 13.4406 20.1351 13.5173 19.9749C13.5939 19.8148 13.5559 19.641 13.4324 19.5867C13.4229 19.5825 13.4132 19.5792 13.4033 19.5766L13.4044 19.5744L8.66354 17.4909L8.65616 17.5063C8.54924 17.5062 8.43372 17.5866 8.37261 17.7143C8.31151 17.8419 8.32325 17.9783 8.3931 18.0558L8.38593 18.0708L8.44897 18.0985L8.45748 18.1025L8.46619 18.1061L13.1267 20.1543L13.1278 20.152C13.1363 20.1575 13.1453 20.1624 13.1548 20.1666ZM21.0707 38.3969C20.9138 38.3969 20.778 38.2908 20.7452 38.1438C20.6771 37.8388 20.6125 37.5458 20.5502 37.2634L20.5502 37.2634C19.8702 34.1797 19.4686 32.3587 17.9456 29.8828C16.4607 28.2895 15.5582 26.1874 15.5582 23.8834C15.5582 18.9066 19.769 14.8722 24.9634 14.8722C30.1577 14.8722 34.3685 18.9066 34.3685 23.8834C34.3685 26.1874 33.466 28.2895 31.9811 29.8828C30.4582 32.3587 30.0566 34.1797 29.3765 37.2634L29.3764 37.2639L29.3758 37.2664C29.3137 37.5479 29.2493 37.8399 29.1816 38.1438C29.1488 38.2908 29.0129 38.3969 28.856 38.3969H21.0707ZM21.6979 35.7653C21.541 35.7653 21.4053 35.6598 21.3725 35.5128C21.3192 35.2733 21.2683 35.0428 21.2192 34.8201C20.6521 32.2486 20.3172 30.7301 19.0472 28.6654C17.809 27.3368 17.0563 25.5839 17.0563 23.6625C17.0563 19.5124 20.5678 16.1481 24.8993 16.1481C29.2309 16.1481 32.7423 19.5124 32.7423 23.6625C32.7423 25.5839 31.9896 27.3368 30.7514 28.6654C29.4814 30.7301 29.1465 32.2486 28.5794 34.8201L28.5794 34.8201L28.5794 34.8201C28.5303 35.0428 28.4794 35.2733 28.4261 35.5128C28.3934 35.6598 28.2576 35.7653 28.1007 35.7653H21.6979ZM21.6087 38.7959H28.6653V38.816C28.9774 38.8868 29.2081 39.1366 29.2081 39.4339C29.2081 39.7311 28.9774 39.9809 28.6653 40.0517V40.0718H21.6087C21.209 40.0718 20.8849 39.7862 20.8849 39.4339C20.8849 39.0815 21.209 38.7959 21.6087 38.7959ZM21.6087 40.3908H28.6653V40.4109C28.9774 40.4817 29.2081 40.7315 29.2081 41.0288C29.2081 41.326 28.9774 41.5758 28.6653 41.6466V41.6667H21.6087C21.209 41.6667 20.8849 41.3811 20.8849 41.0288C20.8849 40.6764 21.209 40.3908 21.6087 40.3908Z" fill="white"/>
</svg>
