<svg width="50" height="50" viewBox="0 0 50 50" fill="none" xmlns="http://www.w3.org/2000/svg">
<path d="M0 25C0 11.1929 11.1929 0 25 0V0C38.8071 0 50 11.1929 50 25V25C50 38.8071 38.8071 50 25 50V50C11.1929 50 0 38.8071 0 25V25Z" fill="#5CC7D0"/>
<path fill-rule="evenodd" clip-rule="evenodd" d="M21.2963 29.9236V20.0752L30.0079 25.0002L21.2963 29.9236ZM40.9697 16.9768C40.588 15.5435 39.458 14.4135 38.023 14.0302C35.423 13.3335 24.9997 13.3335 24.9997 13.3335C24.9997 13.3335 14.5763 13.3335 11.9763 14.0302C10.543 14.4135 9.41301 15.5435 9.02967 16.9768C8.33301 19.5768 8.33301 25.0002 8.33301 25.0002C8.33301 25.0002 8.33301 30.4235 9.02967 33.0218C9.41301 34.4585 10.543 35.5868 11.9763 35.9702C14.5763 36.6668 24.9997 36.6668 24.9997 36.6668C24.9997 36.6668 35.423 36.6668 38.023 35.9702C39.458 35.5868 40.588 34.4585 40.9697 33.0218C41.6663 30.4235 41.6663 25.0002 41.6663 25.0002C41.6663 25.0002 41.6663 19.5768 40.9697 16.9768Z" fill="white"/>
<mask id="mask0_35_51143" style="mask-type:alpha" maskUnits="userSpaceOnUse" x="8" y="13" width="34" height="24">
<path fill-rule="evenodd" clip-rule="evenodd" d="M21.2963 29.9236V20.0752L30.0079 25.0002L21.2963 29.9236ZM40.9697 16.9768C40.588 15.5435 39.458 14.4135 38.023 14.0302C35.423 13.3335 24.9997 13.3335 24.9997 13.3335C24.9997 13.3335 14.5763 13.3335 11.9763 14.0302C10.543 14.4135 9.41301 15.5435 9.02967 16.9768C8.33301 19.5768 8.33301 25.0002 8.33301 25.0002C8.33301 25.0002 8.33301 30.4235 9.02967 33.0218C9.41301 34.4585 10.543 35.5868 11.9763 35.9702C14.5763 36.6668 24.9997 36.6668 24.9997 36.6668C24.9997 36.6668 35.423 36.6668 38.023 35.9702C39.458 35.5868 40.588 34.4585 40.9697 33.0218C41.6663 30.4235 41.6663 25.0002 41.6663 25.0002C41.6663 25.0002 41.6663 19.5768 40.9697 16.9768Z" fill="white"/>
</mask>
<g mask="url(#mask0_35_51143)">
</g>
</svg>
