<svg width="260" height="86" viewBox="0 0 260 86" fill="none" xmlns="http://www.w3.org/2000/svg">
<path fill-rule="evenodd" clip-rule="evenodd" d="M0 72.1786H6.11765V26.1071H0V72.1786Z" fill="#2B3841"/>
<path fill-rule="evenodd" clip-rule="evenodd" d="M28.2616 68.1053C31.6294 68.1053 34.4461 66.9602 36.7054 64.6662C38.9671 62.3748 40.0987 59.5364 40.0987 56.1536C40.0987 52.7721 38.9671 49.9337 36.7054 47.641C34.4461 45.3483 31.6294 44.202 28.2616 44.202C24.9358 44.202 22.142 45.3483 19.8827 47.641C17.621 49.9337 16.4894 52.7721 16.4894 56.1536C16.4894 59.5364 17.621 62.3748 19.8827 64.6662C22.142 66.9602 24.9358 68.1053 28.2616 68.1053ZM40.0987 26.1071H45.8823V72.8453H40.0987V67.1033C37.2158 71.5111 33.0257 73.7143 27.5285 73.7143C22.8751 73.7143 18.9052 72.012 15.6252 68.6062C12.3452 65.2004 10.7058 61.0508 10.7058 56.1536C10.7058 51.2577 12.3452 47.1068 15.6252 43.701C18.9052 40.2952 22.8751 38.593 27.5285 38.593C33.0257 38.593 37.2158 40.7975 40.0987 45.2039V26.1071Z" fill="#2B3841"/>
<path fill-rule="evenodd" clip-rule="evenodd" d="M66.1919 43.8989C63.1194 43.8989 60.5723 44.7831 58.5546 46.5517C56.5331 48.3202 55.2829 50.6812 54.8015 53.636H76.7922C76.3082 50.4576 75.082 48.04 73.1058 46.3833C71.131 44.7279 68.8247 43.8989 66.1919 43.8989ZM54.8015 58.7398C55.3711 61.7383 56.7196 64.0671 58.8495 65.7226C60.9781 67.3805 63.6008 68.207 66.7187 68.207C71.0654 68.207 74.225 66.5747 76.2011 63.305L81.0721 66.1248C77.8672 71.1849 73.0391 73.7143 66.5877 73.7143C61.3613 73.7143 57.1154 72.046 53.8462 68.7108C50.5745 65.3755 48.9412 61.1573 48.9412 56.0536C48.9412 50.9948 50.543 46.7869 53.7479 43.4285C56.9503 40.0714 61.0979 38.3929 66.1919 38.3929C71.0201 38.3929 74.9597 40.1279 78.0109 43.5969C81.062 47.0671 82.5882 51.2416 82.5882 56.1204C82.5882 56.9712 82.5214 57.8452 82.3891 58.7398H54.8015Z" fill="#2B3841"/>
<path fill-rule="evenodd" clip-rule="evenodd" d="M100.144 68.0733C103.512 68.0733 106.327 66.9217 108.588 64.6147C110.849 62.3102 111.98 59.4556 111.98 56.0536C111.98 52.6528 110.849 49.7982 108.588 47.4925C106.327 45.1867 103.512 44.0338 100.144 44.0338C96.8181 44.0338 94.0243 45.1867 91.765 47.4925C89.5033 49.7982 88.3718 52.6528 88.3718 56.0536C88.3718 59.4556 89.5033 62.3102 91.765 64.6147C94.0243 66.9217 96.8181 68.0733 100.144 68.0733ZM111.98 39.2655H117.765V72.8403H111.98V67.0657C109.098 71.4985 104.908 73.7143 99.4108 73.7143C94.7574 73.7143 90.7875 72.0023 87.5075 68.5771C84.2275 65.1519 82.5881 60.9787 82.5881 56.0536C82.5881 51.1297 84.2275 46.9552 87.5075 43.53C90.7875 40.1048 94.7574 38.3929 99.4108 38.3929C104.908 38.3929 109.098 40.6099 111.98 45.0415V39.2655Z" fill="#2B3841"/>
<path fill-rule="evenodd" clip-rule="evenodd" d="M131.53 63.7697C133.789 65.9987 136.604 67.1145 139.973 67.1145C143.342 67.1145 146.157 65.9987 148.419 63.7697C150.681 61.5406 151.81 58.7644 151.81 55.4421C151.81 52.1625 150.681 49.4089 148.419 47.1798C146.157 44.9507 143.342 43.835 139.973 43.835C136.604 43.835 133.789 44.9507 131.53 47.1798C129.268 49.4089 128.136 52.1625 128.136 55.4421C128.136 58.7644 129.268 61.5406 131.53 63.7697ZM151.81 39.2451H157.529V70.6552C157.529 75.5086 155.866 79.2789 152.543 81.9674C149.216 84.6558 145.228 86 140.571 86C136.85 86 133.633 85.3109 130.93 83.9341C128.226 82.5573 126.187 80.5792 124.813 77.9987L129.866 75.1798C131.684 78.8522 135.297 80.6884 140.706 80.6884C144.164 80.6884 146.878 79.7923 148.851 77.9987C150.823 76.2065 151.81 73.7578 151.81 70.6552V65.9987C148.884 70.3715 144.717 72.5566 139.309 72.5566C134.565 72.5566 130.552 70.8961 127.272 67.5739C123.992 64.2516 122.353 60.2077 122.353 55.4421C122.353 50.6778 123.992 46.6439 127.272 43.3442C130.552 40.0433 134.565 38.3929 139.309 38.3929C144.762 38.3929 148.927 40.5566 151.81 44.8842V39.2451Z" fill="#2B3841"/>
<path fill-rule="evenodd" clip-rule="evenodd" d="M177.838 43.8989C174.766 43.8989 172.219 44.7831 170.201 46.5517C168.181 48.3202 166.931 50.6812 166.448 53.636H188.439C187.955 50.4576 186.728 48.04 184.752 46.3833C182.778 44.7279 180.472 43.8989 177.838 43.8989ZM166.448 58.7398C167.018 61.7383 168.366 64.0671 170.497 65.7226C172.626 67.3805 175.248 68.207 178.365 68.207C182.712 68.207 185.872 66.5747 187.847 63.305L192.719 66.1248C189.514 71.1849 184.686 73.7143 178.234 73.7143C173.009 73.7143 168.763 72.046 165.494 68.7108C162.223 65.3755 160.588 61.1573 160.588 56.0536C160.588 50.9948 162.19 46.7869 165.396 43.4285C168.598 40.0714 172.746 38.3929 177.838 38.3929C182.666 38.3929 186.606 40.1279 189.657 43.5969C192.708 47.0671 194.235 51.2416 194.235 56.1204C194.235 56.9712 194.168 57.8452 194.036 58.7398H166.448Z" fill="#2B3841"/>
<path fill-rule="evenodd" clip-rule="evenodd" d="M213.625 38.3929C217.473 38.3929 220.557 39.6118 222.875 42.0485C225.192 44.4852 226.353 47.7891 226.353 51.9603V72.1786H220.644V52.2893C220.644 49.6119 219.924 47.537 218.48 46.0647C217.038 44.5948 215.046 43.8587 212.512 43.8587C209.669 43.8587 207.373 44.7486 205.623 46.5273C203.874 48.3047 202.999 51.0376 202.999 54.7273V72.1786H197.294V39.2488H202.999V43.991C205.318 40.2585 208.858 38.3929 213.625 38.3929Z" fill="#2B3841"/>
<path fill-rule="evenodd" clip-rule="evenodd" d="M235.53 7.67857V15.2757L236.094 15.2743L236.098 8.03345L247.765 15.3571L260 7.67857L247.765 0L235.53 7.67857Z" fill="#E30072"/>
<path fill-rule="evenodd" clip-rule="evenodd" d="M247.765 15.3571V29.1786L260 21.5V7.67856L247.765 15.3571Z" fill="#2B3841"/>
<path fill-rule="evenodd" clip-rule="evenodd" d="M223.294 29.1786V36.7757L223.859 36.7743L223.862 29.5335L235.529 36.8571L247.765 29.1786L235.529 21.5L223.294 29.1786Z" fill="#15CAD2"/>
<path fill-rule="evenodd" clip-rule="evenodd" d="M235.53 36.8571V50.6786L247.765 43V29.1786L235.53 36.8571Z" fill="#02838F"/>
</svg>
